<?xml version="1.0" standalone="no"?>

<svg version="1.0" xmlns="http://www.w3.org/2000/svg"
 width="512.000000pt" height="512.000000pt" viewBox="0 0 512.000000 512.000000"
 preserveAspectRatio="xMidYMid meet">

<g transform="translate(0.000000,512.000000) scale(0.100000,-0.100000)"
fill="#000000" stroke="none">
<path d="M1765 4793 c-387 -31 -719 -137 -1004 -320 -358 -230 -604 -544 -705
-898 -121 -422 -42 -834 234 -1218 64 -89 250 -272 353 -346 48 -35 87 -65 87
-67 0 -2 -56 -117 -125 -254 -124 -249 -125 -250 -93 -237 18 8 171 73 340
146 168 72 311 131 317 131 6 0 62 -15 124 -34 119 -36 326 -80 335 -71 3 3 0
33 -6 68 -55 300 6 636 166 912 280 484 807 810 1447 896 102 14 433 18 513 6
63 -9 63 -12 22 115 -129 398 -452 747 -886 959 -329 161 -757 242 -1119 212z
m-395 -734 c60 -27 98 -64 126 -124 41 -86 24 -186 -44 -259 -38 -40 -118 -76
-172 -76 -27 0 -66 10 -95 24 -191 90 -191 342 0 432 62 29 125 30 185 3z
m1280 0 c60 -27 98 -64 126 -124 41 -86 24 -186 -44 -259 -38 -40 -118 -76
-172 -76 -27 0 -66 10 -95 24 -191 90 -191 342 0 432 62 29 125 30 185 3z"/>
<path d="M3320 3189 c-577 -58 -1074 -369 -1288 -805 -79 -160 -106 -279 -106
-464 0 -74 6 -162 13 -195 83 -394 376 -731 801 -920 337 -150 735 -200 1086
-135 l111 20 399 -171 c219 -94 413 -177 431 -184 32 -13 29 -8 -117 285
l-149 298 53 35 c259 172 461 442 533 712 22 86 26 121 27 245 0 81 -5 171
-13 205 -83 395 -376 731 -801 920 -298 133 -646 187 -980 154z m-190 -730
c60 -27 98 -64 126 -124 41 -86 24 -186 -44 -259 -38 -40 -118 -76 -172 -76
-54 0 -134 36 -172 76 -114 122 -76 308 77 380 62 29 125 30 185 3z m960 0
c60 -27 98 -64 126 -124 41 -86 24 -186 -44 -259 -38 -40 -118 -76 -172 -76
-54 0 -134 36 -172 76 -114 122 -76 308 77 380 62 29 125 30 185 3z"/>
</g>
</svg>
